<svg class="logo-svg" width="88" height="88" viewBox="0 0 88 88" fill="none" xmlns="http://www.w3.org/2000/svg">
  <path d="M7.33333 36.6667C10.1933 22.6747 20.79 11.4767 34.4887 7.66334C35.64 7.34434 36.212 7.18301 36.5237 7.52401C36.8353 7.86868 36.6043 8.43334 36.1497 9.57001L33 16.5M51.3333 7.33334C65.3253 10.1933 76.5233 20.79 80.3367 34.4887C80.6557 35.64 80.817 36.212 80.476 36.5237C80.1313 36.8353 79.5667 36.6043 78.43 36.1497L71.5 33M80.6667 51.3333C77.8067 65.3253 67.21 76.5233 53.5113 80.3367C52.36 80.6557 51.788 80.817 51.4763 80.476C51.1647 80.1313 51.3957 79.5667 51.8503 78.43L55 71.5M36.6667 80.6667C22.6747 77.8067 11.4767 67.21 7.66333 53.5113C7.34433 52.36 7.183 51.788 7.524 51.4763C7.86867 51.1647 8.43333 51.3957 9.57 51.8503L16.5 55" stroke="currentColor" stroke-width="8" stroke-linecap="round" stroke-linejoin="round"/>
  <path d="M60.6222 25.4222V29.3333C60.6222 32.9639 59.18 36.4457 56.6128 39.0129C54.0457 41.58 50.5639 43.0222 46.9333 43.0222H44.9778V44.9778H54.7556V58.6667C54.7556 59.704 54.3435 60.6988 53.61 61.4323C52.8765 62.1657 51.8817 62.5778 50.8444 62.5778H35.2C34.1627 62.5778 33.1679 62.1657 32.4344 61.4323C31.701 60.6988 31.2889 59.704 31.2889 58.6667V44.9778H41.0667V39.1111C41.0667 35.4806 42.5089 31.9988 45.076 29.4316C47.6432 26.8645 51.125 25.4222 54.7556 25.4222H60.6222ZM30.3111 23.4667C32.6577 23.4648 34.9705 24.0267 37.0546 25.1052C39.1387 26.1837 40.9332 27.7471 42.2869 29.6638C40.2215 32.3798 39.1057 35.6991 39.1111 39.1111V41.0667H38.1333C34.2435 41.0667 30.513 39.5214 27.7624 36.7709C25.0119 34.0204 23.4667 30.2899 23.4667 26.4V23.4667H30.3111Z" fill="currentColor"/>
</svg>


