<svg width="54" height="81" viewBox="0 0 54 81" fill="none" xmlns="http://www.w3.org/2000/svg">
<path d="M26.2615 0.211895C25.4008 0.570523 8.6888 17.3782 7.20647 19.3865C-0.109518 29.3324 -1.61575 40.0673 2.95077 49.5351C5.74806 55.3209 10.1233 59.9113 21.695 69.1878L24.9944 71.8178V75.3562V78.9186L25.6877 79.6119C26.668 80.5683 27.8634 80.5683 28.8436 79.6119L29.537 78.9186V51.9737C29.537 33.9707 29.4653 24.8854 29.2979 24.5746C28.9871 24.0008 27.8395 23.4031 27.0266 23.4031C26.6441 23.4031 26.1181 23.69 25.6877 24.0965L24.9944 24.7898V32.2971L24.9705 39.7804L20.38 35.0704C17.8457 32.4644 15.4788 30.2409 15.1202 30.0975C13.6379 29.5715 12.0838 30.6952 12.0838 32.321C12.0838 33.2773 12.2033 33.4208 18.5391 39.7804L24.9944 46.2596L24.9466 56.0143L24.8748 65.7928L20.3322 62.0153C12.6576 55.6078 8.76053 51.3043 6.91957 47.1681C5.74806 44.5382 5.12644 41.5018 5.12644 38.3937C5.12644 34.0902 5.89151 30.7908 7.78028 27.1567C10.0038 22.8054 12.7293 19.6256 21.3364 11.2815L27.2896 5.49567L33.0515 11.0424C40.4632 18.1911 42.591 20.5102 45.0775 24.216C50.3374 32.0819 50.9112 41.6692 46.5359 48.9613C44.4559 52.3802 42.0411 55.1057 35.8249 60.9872C33.0994 63.5454 32.8842 63.8084 32.8842 64.6213C32.8842 66.4144 34.4382 67.5142 36.0401 66.8448C37.3072 66.2949 47.1097 56.4207 48.8789 53.8864C50.7199 51.2326 52.4891 47.6702 53.3498 44.8012C53.9715 42.7929 54.0193 42.3625 53.9954 38.2264C53.9954 34.2097 53.9475 33.5881 53.3737 31.4842C51.8675 25.8657 49.6201 21.8252 45.0775 16.5892C42.8301 14.0071 29.274 0.785699 28.4133 0.331438C27.6721 -0.0750062 27.0505 -0.0989146 26.2615 0.211895Z" fill="black"/>
</svg>
